<?xml version="1.0" encoding="UTF-8" standalone="no"?>
<!DOCTYPE svg PUBLIC "-//W3C//DTD SVG 1.1//EN"
 "http://www.w3.org/Graphics/SVG/1.1/DTD/svg11.dtd">
<!-- Generated by graphviz version 2.40.1 (20161225.0304)
 -->
<!-- Title: dependencies Pages: 1 -->
<svg width="789pt" height="284pt"
 viewBox="0.00 0.00 789.00 284.00" xmlns="http://www.w3.org/2000/svg" xmlns:xlink="http://www.w3.org/1999/xlink">
<g id="graph0" class="graph" transform="scale(1 1) rotate(0) translate(4 280)">
<title>dependencies</title>
<polygon fill="#ffffff" stroke="transparent" points="-4,4 -4,-280 785,-280 785,4 -4,4"/>
<text text-anchor="start" x="369.5091" y="-42.4" font-family="sans-serif" font-weight="bold" font-size="14.00" fill="#000000">Legend</text>
<polygon fill="#ffffb3" stroke="transparent" points="156.5,-10 156.5,-30 176.5,-30 176.5,-10 156.5,-10"/>
<text text-anchor="start" x="180.129" y="-15.4" font-family="sans-serif" font-size="14.00" fill="#000000"> &#160;Declarations</text>
<polygon fill="#8dd3c7" stroke="transparent" points="269.5,-10 269.5,-30 289.5,-30 289.5,-10 269.5,-10"/>
<text text-anchor="start" x="293.2251" y="-15.4" font-family="sans-serif" font-size="14.00" fill="#000000"> &#160;Module</text>
<polygon fill="#80b1d3" stroke="transparent" points="355.5,-10 355.5,-30 375.5,-30 375.5,-10 355.5,-10"/>
<text text-anchor="start" x="379.2812" y="-15.4" font-family="sans-serif" font-size="14.00" fill="#000000"> &#160;Bootstrap</text>
<polygon fill="#fdb462" stroke="transparent" points="452.5,-10 452.5,-30 472.5,-30 472.5,-10 452.5,-10"/>
<text text-anchor="start" x="476.1732" y="-15.4" font-family="sans-serif" font-size="14.00" fill="#000000"> &#160;Providers</text>
<polygon fill="#fb8072" stroke="transparent" points="548.5,-10 548.5,-30 568.5,-30 568.5,-10 548.5,-10"/>
<text text-anchor="start" x="572.2258" y="-15.4" font-family="sans-serif" font-size="14.00" fill="#000000"> &#160;Exports</text>
<g id="clust1" class="cluster">
<title>cluster_AppModule</title>
<polygon fill="none" stroke="#000000" stroke-dasharray="1,5" points="8,-70 8,-268 773,-268 773,-70 8,-70"/>
</g>
<g id="clust2" class="cluster">
<title>cluster_AppModule_declarations</title>
<polygon fill="none" stroke="#000000" points="643,-78 643,-130 765,-130 765,-78 643,-78"/>
</g>
<g id="clust4" class="cluster">
<title>cluster_AppModule_imports</title>
<polygon fill="none" stroke="#000000" points="16,-78 16,-130 635,-130 635,-78 16,-78"/>
</g>
<g id="clust6" class="cluster">
<title>cluster_AppModule_bootstrap</title>
<polygon fill="none" stroke="#000000" points="310,-208 310,-260 434,-260 434,-208 310,-208"/>
</g>
<!-- AppComponent -->
<g id="node1" class="node">
<title>AppComponent</title>
<polygon fill="#ffffb3" stroke="#000000" points="756.9399,-122 651.0601,-122 651.0601,-86 756.9399,-86 756.9399,-122"/>
<text text-anchor="middle" x="704" y="-99.8" font-family="Times,serif" font-size="14.00" fill="#000000">AppComponent</text>
</g>
<!-- AppModule -->
<g id="node2" class="node">
<title>AppModule</title>
<polygon fill="#8dd3c7" stroke="#000000" points="413.6571,-187 410.6571,-191 389.6571,-191 386.6571,-187 330.3429,-187 330.3429,-151 413.6571,-151 413.6571,-187"/>
<text text-anchor="middle" x="372" y="-164.8" font-family="Times,serif" font-size="14.00" fill="#000000">AppModule</text>
</g>
<!-- AppComponent&#45;&gt;AppModule -->
<g id="edge1" class="edge">
<title>AppComponent&#45;&gt;AppModule</title>
<path fill="none" stroke="#000000" d="M704,-122.2843C704,-143.3211 704,-175 704,-175 704,-175 423.7119,-175 423.7119,-175"/>
<polygon fill="#000000" stroke="#000000" points="423.7119,-171.5001 413.7119,-175 423.7118,-178.5001 423.7119,-171.5001"/>
</g>
<!-- AppComponent  -->
<g id="node8" class="node">
<title>AppComponent </title>
<polygon fill="#80b1d3" stroke="#000000" points="426.439,-252 317.561,-252 317.561,-216 426.439,-216 426.439,-252"/>
<text text-anchor="middle" x="372" y="-229.8" font-family="Times,serif" font-size="14.00" fill="#000000">AppComponent </text>
</g>
<!-- AppModule&#45;&gt;AppComponent  -->
<g id="edge7" class="edge">
<title>AppModule&#45;&gt;AppComponent </title>
<path fill="none" stroke="#000000" stroke-dasharray="1,5" d="M372,-187.1061C372,-187.1061 372,-205.991 372,-205.991"/>
<polygon fill="#000000" stroke="#000000" points="368.5001,-205.9909 372,-215.991 375.5001,-205.991 368.5001,-205.9909"/>
</g>
<!-- AppRoutingModule -->
<g id="node3" class="node">
<title>AppRoutingModule</title>
<polygon fill="#8dd3c7" stroke="#000000" points="627.2744,-122 624.2744,-126 603.2744,-126 600.2744,-122 498.7256,-122 498.7256,-86 627.2744,-86 627.2744,-122"/>
<text text-anchor="middle" x="563" y="-99.8" font-family="Times,serif" font-size="14.00" fill="#000000">AppRoutingModule</text>
</g>
<!-- AppRoutingModule&#45;&gt;AppModule -->
<g id="edge2" class="edge">
<title>AppRoutingModule&#45;&gt;AppModule</title>
<path fill="none" stroke="#000000" d="M563,-122.0225C563,-139.3734 563,-163 563,-163 563,-163 423.9158,-163 423.9158,-163"/>
<polygon fill="#000000" stroke="#000000" points="423.9158,-159.5001 413.9158,-163 423.9157,-166.5001 423.9158,-159.5001"/>
</g>
<!-- ContactModule -->
<g id="node4" class="node">
<title>ContactModule</title>
<polygon fill="#8dd3c7" stroke="#000000" points="480.5968,-122 477.5968,-126 456.5968,-126 453.5968,-122 377.4032,-122 377.4032,-86 480.5968,-86 480.5968,-122"/>
<text text-anchor="middle" x="429" y="-99.8" font-family="Times,serif" font-size="14.00" fill="#000000">ContactModule</text>
</g>
<!-- ContactModule&#45;&gt;AppModule -->
<g id="edge3" class="edge">
<title>ContactModule&#45;&gt;AppModule</title>
<path fill="none" stroke="#000000" d="M395.6399,-122.1061C395.6399,-122.1061 395.6399,-140.991 395.6399,-140.991"/>
<polygon fill="#000000" stroke="#000000" points="392.14,-140.9909 395.6399,-150.991 399.14,-140.991 392.14,-140.9909"/>
</g>
<!-- CoreModule -->
<g id="node5" class="node">
<title>CoreModule</title>
<polygon fill="#8dd3c7" stroke="#000000" points="359.2619,-122 356.2619,-126 335.2619,-126 332.2619,-122 272.7381,-122 272.7381,-86 359.2619,-86 359.2619,-122"/>
<text text-anchor="middle" x="316" y="-99.8" font-family="Times,serif" font-size="14.00" fill="#000000">CoreModule</text>
</g>
<!-- CoreModule&#45;&gt;AppModule -->
<g id="edge4" class="edge">
<title>CoreModule&#45;&gt;AppModule</title>
<path fill="none" stroke="#000000" d="M344.7763,-122.1061C344.7763,-122.1061 344.7763,-140.991 344.7763,-140.991"/>
<polygon fill="#000000" stroke="#000000" points="341.2764,-140.9909 344.7763,-150.991 348.2764,-140.991 341.2764,-140.9909"/>
</g>
<!-- SharedModule -->
<g id="node6" class="node">
<title>SharedModule</title>
<polygon fill="#8dd3c7" stroke="#000000" points="254.4231,-122 251.4231,-126 230.4231,-126 227.4231,-122 155.5769,-122 155.5769,-86 254.4231,-86 254.4231,-122"/>
<text text-anchor="middle" x="205" y="-99.8" font-family="Times,serif" font-size="14.00" fill="#000000">SharedModule</text>
</g>
<!-- SharedModule&#45;&gt;AppModule -->
<g id="edge5" class="edge">
<title>SharedModule&#45;&gt;AppModule</title>
<path fill="none" stroke="#000000" d="M205,-122.0225C205,-139.3734 205,-163 205,-163 205,-163 320.2896,-163 320.2896,-163"/>
<polygon fill="#000000" stroke="#000000" points="320.2897,-166.5001 330.2896,-163 320.2896,-159.5001 320.2897,-166.5001"/>
</g>
<!-- WelcomeModule -->
<g id="node7" class="node">
<title>WelcomeModule</title>
<polygon fill="#8dd3c7" stroke="#000000" points="137.6896,-122 134.6896,-126 113.6896,-126 110.6896,-122 24.3104,-122 24.3104,-86 137.6896,-86 137.6896,-122"/>
<text text-anchor="middle" x="81" y="-99.8" font-family="Times,serif" font-size="14.00" fill="#000000">WelcomeModule</text>
</g>
<!-- WelcomeModule&#45;&gt;AppModule -->
<g id="edge6" class="edge">
<title>WelcomeModule&#45;&gt;AppModule</title>
<path fill="none" stroke="#000000" d="M81,-122.2843C81,-143.3211 81,-175 81,-175 81,-175 320.3068,-175 320.3068,-175"/>
<polygon fill="#000000" stroke="#000000" points="320.3068,-178.5001 330.3068,-175 320.3068,-171.5001 320.3068,-178.5001"/>
</g>
</g>
</svg>
